HIERARCHY
ROOT pelvis
{
  OFFSET 0 100 0
  CHANNELS 6 Xposition Yposition Zposition Zrotation Xrotation Yrotation
  JOINT pelvis_right_femur
  {
    OFFSET -10.78128 -3.44521 -0.5502486
    CHANNELS 3 Zrotation Xrotation Yrotation
    JOINT right_femur_tibia
    {
      OFFSET -0.8047443 -44.0398 -0.1307829
      CHANNELS 3 Zrotation Xrotation Yrotation
      JOINT right_tibia_foot
      {
        OFFSET 3.006224 -47.83518 -5
        CHANNELS 3 Zrotation Xrotation Yrotation
        End Site
        {
          OFFSET 0 -5 15
        }
      }
    }
  }
  JOINT pelvis_left_femur
  {
    OFFSET 10.78128 -3.44521 -0.5502486
    CHANNELS 3 Zrotation Xrotation Yrotation
    JOINT left_femur_tibia
    {
      OFFSET 0.8047443 -44.0398 -0.1307829
      CHANNELS 3 Zrotation Xrotation Yrotation
      JOINT left_tibia_foot
      {
        OFFSET -4.370144 -48.10324 -4.275266
        CHANNELS 3 Zrotation Xrotation Yrotation
        End Site
        {
          OFFSET 0 -5 15
        }
      }
    }
  }
  JOINT pelvis_spine1
  {
    OFFSET 0 6.468898 -3.129235
    CHANNELS 3 Zrotation Xrotation Yrotation
    JOINT spine1
    {
      OFFSET 0 23.15396 4.99043
      CHANNELS 3 Zrotation Xrotation Yrotation
      JOINT spine2
      {
        OFFSET 0 20.79997 -5.064912
        CHANNELS 3 Zrotation Xrotation Yrotation
        JOINT neck
        {
          OFFSET 0 14.38658 9.616178
          CHANNELS 3 Zrotation Xrotation Yrotation
          End Site
          {
            OFFSET 0 20 0
          }
        }
      }
      JOINT right_manubrium
      {
        OFFSET -5.722621 16.35077 3.967754
        CHANNELS 3 Zrotation Xrotation Yrotation
        JOINT right_clavicle
        {
          OFFSET -13.16364 1.694482 -4.693211
          CHANNELS 3 Zrotation Xrotation Yrotation
          JOINT right_humerus
          {
            OFFSET -28.5034 -0.3100689 -2.792744
            CHANNELS 3 Zrotation Xrotation Yrotation
            JOINT right_radius
            {
              OFFSET -25.15693 0.02248979 -1.271978
              CHANNELS 3 Zrotation Xrotation Yrotation
              End Site
              {
                OFFSET -15 0 0
              }
            }
          }
        }
      }
      JOINT left_manubrium
      {
        OFFSET 5.722621 16.35077 3.967754
        CHANNELS 3 Zrotation Xrotation Yrotation
        JOINT left_clavicle
        {
          OFFSET 13.16364 1.694482 -4.693211
          CHANNELS 3 Zrotation Xrotation Yrotation
          JOINT left_humerus
          {
            OFFSET 29.39168 -1.063119 -2.237045
            CHANNELS 3 Zrotation Xrotation Yrotation
            JOINT left_radius
            {
              OFFSET 24.59957 -0.9528479 0.9047498
              CHANNELS 3 Zrotation Xrotation Yrotation
              End Site
              {
                OFFSET 15 -0 -0
              }
            }
          }
        }
      }
    }
  }
}
MOTION
Frames: 7
Frame Time: 0.0416666666667
1017.818 101.2143 2774.992 -0.9097401 0.2299581 48.0274 4.442461 -32.15878 -0.1977353 -0 5.139265 -0 -6.123025 2.816179 -2.132216 -5.150625 17.3601 -10.73148 -0 18.76397 -0 -3.265399 -20.79874 11.79981 -2.397807 -0.7652445 0.05919694 2.433237 6.225067 -8.364913 2.307761 22.81063 6.496629 2.55498 -18.89628 8.596103 -0.3399106 -10.47328 8.154714 95.38985 25.43711 -27.16031 0 0 -2.566338 -15.39235 8.525784 6.984624 8.102251 -25.7247 -3.69476 -75.89904 22.16369 -8.104412 0 0 -38.80935 7.598971 7.273649 6.298487
1022.515 100.8373 2779.48 -1.418787 -0.1850974 48.40621 5.964486 -30.05123 0.8638199 -0 7.763588 -0 -6.738344 2.821776 -1.867431 -4.557633 16.70608 -10.12764 -0 26.34713 -0 -4.155985 -17.03384 10.66519 -2.303732 -0.8120718 0.1225674 2.247491 6.117563 -8.138011 2.457315 23.0388 6.333928 2.472193 -18.80789 8.638739 -0.6079294 -10.46406 7.921888 95.50166 25.21543 -26.89892 0 0 -2.800616 -15.23722 8.164064 6.814726 8.07758 -25.82397 -3.642597 -75.86338 22.42058 -8.134852 0 0 -38.87581 7.734772 7.746032 6.449652
1027.419 101.138 2784.196 -1.320508 -1.056532 48.44883 7.265709 -26.3808 1.869767 -0 10.70963 -0 -7.113463 2.309594 -1.995322 -3.858425 14.70823 -9.008538 -0 36.45989 -0 -5.039172 -12.44704 9.830849 -2.141296 -0.6995789 0.3147273 1.927929 6.1917 -7.78454 2.679383 23.41902 5.995858 2.281941 -18.55834 8.640591 -0.8840299 -10.63924 7.70118 95.4356 24.67979 -26.12549 0 0 -2.468348 -15.12551 7.838699 6.58495 7.821822 -25.5341 -3.668733 -76.25738 23.08609 -7.384155 0 0 -37.57015 7.498753 8.401403 6.963366
1032.355 102.0455 2788.945 -0.4849519 -2.047956 48.07616 7.89461 -21.12903 2.611341 -0 12.54992 -0 -7.142815 1.123601 -2.424869 -3.30089 10.72836 -7.874935 -0 47.32772 -0 -5.642742 -8.471793 9.976873 -1.943821 -0.4480389 0.6159072 1.534315 6.448146 -7.349038 2.928604 23.86639 5.544035 2.012298 -18.22863 8.602629 -1.138115 -11.0548 7.551313 95.1668 23.87549 -24.88669 0 0 -1.495335 -15.10909 7.613206 6.400865 7.372905 -24.84132 -3.767163 -77.13545 24.0526 -5.780492 0 0 -34.99488 6.872366 9.087963 7.80334
1037.085 103.2828 2793.501 1.018668 -2.885555 47.42131 7.578348 -14.46103 2.764465 -0 12.66247 -0 -7.198586 -0.7619923 -2.721488 -2.939585 4.596452 -7.104142 -0 55.99723 -0 -5.935064 -6.122243 11.07734 -1.749226 -0.1030441 1.004508 1.121442 6.836652 -6.85676 3.15957 24.29907 5.054602 1.70398 -17.90064 8.53124 -1.361594 -11.73528 7.504144 94.68097 22.85928 -23.24868 -0 0 0.1224098 -15.23211 7.495989 6.372151 6.81241 -23.77867 -3.897499 -78.52023 25.16843 -3.346746 0 0 -31.42039 5.884685 9.653424 8.90497
1041.443 104.4631 2797.725 2.761429 -3.428362 46.71527 6.598754 -7.190519 2.322323 -0 11.36458 -0 -7.669525 -3.219435 -2.530869 -2.544694 -2.963207 -6.628531 -0 59.76284 -0 -5.804791 -5.403539 12.56807 -1.579558 0.2794006 1.471995 0.7133008 7.273362 -6.304251 3.347238 24.6611 4.581526 1.391246 -17.61941 8.433384 -1.570125 -12.66883 7.547834 93.9793 21.70116 -21.26427 -0 0 2.341947 -15.51177 7.452064 6.569993 6.232868 -22.41267 -3.997674 -80.39211 26.28614 -0.1762116 0 0 -27.17978 4.606201 10.00604 10.20073
1045.442 105.2462 2801.623 4.185711 -3.773725 46.10294 5.666963 -0.5453793 1.661069 -0 9.630011 -0 -8.573954 -5.841228 -1.96816 -1.699879 -10.44382 -6.01217 -0 57.56727 -0 -4.980491 -5.49436 13.96562 -1.437275 0.6445325 2.025017 0.3079344 7.66792 -5.671951 3.485358 24.91689 4.150497 1.094194 -17.39599 8.314783 -1.793662 -13.8289 7.640989 93.07146 20.47676 -18.96409 -0 0 5.114937 -15.9391 7.433331 7.024398 5.710889 -20.81886 -4.00531 -82.7006 27.28311 3.621664 0 0 -22.59241 3.122985 10.10964 11.63948
